<?xml version="1.0" encoding="UTF-8"?><svg id="_Шар_1" xmlns="http://www.w3.org/2000/svg" viewBox="0 0 179 195.48"><defs><style>.cls-1{fill:#55161a;}.cls-1,.cls-2,.cls-3{stroke-width:0px;}.cls-2{fill:#eb6d6e;}.cls-3{fill:#fcf7f0;}</style></defs><path class="cls-3" d="M114.59,130.96c-7.55,5.17-15.92,8.91-25.11,11.22-9.35-2.33-17.7-5.95-24.99-10.89-7.02-4.76-11.14-12.52-11.14-20.75v-41.51c0-6.26,4.56-11.67,10.95-13.03,16.78-3.58,33.57-3.58,50.36,0,6.39,1.36,10.95,6.77,10.95,13.03v41.27c0,8.18-4.06,15.9-11.02,20.67Z"/><path class="cls-2" d="M98.2,120.25c-3.08,6.6-6.71,7.39-9.23,6.21-4.61-2.14-3.76-4.8-9.68-7.67-5.04-2.26-6.9-.95-10.1-1.75.92-.48,1.71-1.22,1.91-1.66.37-.8-2.07-1.53-3.31-2.07-2.09-.91-2.1-2.89-3.3-3.45.08-.47.18-.96.33-1.48.26-.95.65-2,1.18-3.14,2.5-5.36,5.12-3.71,11.77-5.76,6.12-1.9,7.16-6.95,12.58-4.42,2.85,1.33,3.32,3.08,3.47,5.31.15,2,.05,4.38,1.23,7.17,2.7,6.41,5.64,7.36,3.14,12.72Z"/><path class="cls-2" d="M96.77,91.95c5.86,2.73,14.41-.3,17.1-6.07,2.02-4.32.29-11.27-3.53-13.05-4.33-2.02-9.34,2.08-13.15,10.25-2.35,5.05-2.45,7.92-.42,8.87Z"/><path class="cls-2" d="M112.38,95.74c-5.35-2.49-13.59-.78-15.39,3.06-1.9,4.08.47,11.63,4.29,13.41,4.59,2.14,9.95-.04,12.3-5.09,2.58-5.53,2.11-9.84-1.2-11.38Z"/><path class="cls-1" d="M97.74,74.01c-.25-.61-.99-2.05-2.52-2.76-1.97-.92-2.39-2.41-4.62-3.46-1.49-.7-3.62-.68-4.87-.6,2.76-1.97,6.33-2.89,8.81-1.73,2.76,1.28,3.79,4.37,3.2,8.55Z"/><path class="cls-2" d="M95.14,82.13c-2.35,5.05-4.49,6.97-6.53,6.02-5.86-2.73-9.03-11.23-6.34-17,.63-1.35,1.68-2.58,2.95-3.58.16-.13.33-.26.5-.38,1.25-.08,3.38-.09,4.87.6,2.23,1.04,2.65,2.54,4.62,3.46,1.53.71,2.27,2.15,2.52,2.76,0,.07-.02.14-.03.21-.36,2.34-1.22,5.02-2.57,7.91Z"/><path class="cls-2" d="M83.22,92.38c1.79-3.84-2.19-11.26-7.54-13.76-3.31-1.54-6.92.87-9.5,6.4-2.35,5.05-.58,10.55,4.01,12.69,3.57,1.66,11.24-1.49,13.03-5.33Z"/><path class="cls-1" d="M71.11,115.38c-.45.95-1.2,1.64-1.91,1.66-.61-.15-1.27-.39-2-.73-1.84-.86-3.27-2.86-2.69-6.45h0c1.2.56,1.54,2.13,3.5,3.04.76.35,3.74,1.11,3.11,2.48Z"/><path class="cls-1" d="M94.55,118.53c-1.2,2.57-4.31,3.69-7.16,2.36-2.63-1.23-2.67-3.57-4.88-4.6-1.69-.79-2.08.06-4.01-.85-3.09-1.44-.56-5.6-3.56-6.99-2.54-1.19-4.24,2.98-8.72.89-.5-.23-.98-.58-1.4-.95.26-.95.65-2,1.18-3.14,2.5-5.36,5.12-3.71,11.77-5.76,6.12-1.9,7.16-6.95,12.58-4.42,2.85,1.33,3.32,3.08,3.47,5.31-1.15,2.38-3.29,2.17-4.56,4.87-1.85,3.96,8.52,6.32,5.27,13.29Z"/></svg>