<?xml version="1.0" encoding="UTF-8"?><svg id="_Шар_1" xmlns="http://www.w3.org/2000/svg" viewBox="0 0 179 195.48"><defs><style>.cls-1{fill:#000;stroke-width:0px;}</style></defs><path class="cls-1" d="M95.21,71.25c.73.34,1.28.84,1.68,1.34,0-.2,0-.46,0-.75v-.67h0c-.12-1.97-.81-3.88-2.77-4.79-.6-.28-1.29-.42-2.06-.42-.81,0-1.71.16-2.6.45-.37.12-.69.23-1,.35-.35.12-.67.25-1.07.42,1.07.04,2.27.19,3.22.64,2.23,1.04,2.65,2.53,4.61,3.45Z"/><path class="cls-1" d="M114.65,56c-16.79-3.58-33.57-3.58-50.35,0-6.4,1.36-10.96,6.77-10.96,13.03v41.51c0,8.23,4.12,15.99,11.13,20.75,7.29,4.94,15.64,8.55,25,10.89,9.19-2.3,17.56-6.04,25.11-11.21,6.96-4.76,11.02-12.48,11.02-20.66v-41.27c0-6.26-4.56-11.67-10.96-13.03ZM110.34,72.84c3.82,1.78,5.55,8.72,3.52,13.05-2.68,5.77-11.23,8.8-17.09,6.06-2.04-.94-1.94-3.82.42-8.87,3.8-8.17,8.81-12.26,13.15-10.24ZM82.27,71.15c.63-1.34,1.68-2.57,2.96-3.57.16-.14.33-.26.5-.39,1.93-1.37,4.26-2.23,6.33-2.23.89,0,1.74.16,2.48.51,2.76,1.28,3.79,4.37,3.21,8.54,0,.07-.02.14-.03.21-.36,2.34-1.22,5.02-2.57,7.91-2.35,5.05-4.5,6.98-6.53,6.02-5.85-2.73-9.03-11.23-6.34-17ZM66.18,85.02c2.57-5.53,6.18-7.94,9.5-6.39,5.35,2.49,9.33,9.9,7.54,13.75-1.8,3.84-9.47,7-13.03,5.33-4.59-2.13-6.36-7.64-4.01-12.69ZM98.19,120.26c-3.08,6.59-6.71,7.38-9.23,6.21-4.61-2.14-3.76-4.8-9.68-7.68-5.04-2.25-6.9-.94-10.09-1.75-.61-.16-1.27-.39-2-.73-1.85-.85-3.26-2.86-2.69-6.44.08-.48.18-.96.33-1.49.27-.95.65-1.99,1.18-3.14,2.5-5.36,5.13-3.71,11.77-5.77.31-.1.61-.2.89-.31.28-.11.56-.23.81-.35.27-.13.52-.26.75-.39.85-.46,1.59-.96,2.25-1.46.2-.14.39-.29.57-.43.46-.35.89-.67,1.32-.97.17-.12.34-.23.52-.34.2-.12.39-.23.6-.33.14-.07.27-.14.41-.19.11-.04.21-.08.33-.12.11-.04.22-.08.33-.1.12-.03.24-.06.37-.08.03,0,.06,0,.09,0,.2-.03.4-.05.61-.05h.03c.4,0,.81.05,1.27.16.34.08.68.2,1.06.36.13.05.26.11.39.17,2.85,1.33,3.31,3.09,3.47,5.31.15,2,.05,4.38,1.23,7.17,2.69,6.41,5.64,7.36,3.14,12.72ZM113.59,107.13c-2.35,5.04-7.71,7.22-12.3,5.08-3.82-1.78-6.19-9.32-4.29-13.41,1.8-3.84,10.03-5.56,15.38-3.07,3.31,1.55,3.78,5.86,1.21,11.39Z"/><path class="cls-1" d="M68,112.91c-1.07-.5-1.67-1.2-2.17-1.82-.17-.21-.33-.41-.49-.59,0,.05,0,.11,0,.17,0,.18,0,.4,0,.61h0c.02.44.05.84.05.84.21,1.91,1.25,2.84,2.21,3.29.41.19,1.47.58,2.24.84.13.04.25.08.36.12.07.02.13.04.18.06.06-.06.12-.12.18-.19.21-.25.4-.54.55-.86.01-.03.03-.06.03-.09.48-1.31-2.4-2.04-3.14-2.39Z"/><path class="cls-1" d="M89.27,105.25c.95-2.05,2.48-2.49,3.64-3.6v-.02c0-.35,0-.54-.02-.7,0-.21-.03-.38-.08-.75-.15-1.77-.53-3.11-2.88-4.21-.87-.41-1.62-.6-2.3-.6-1.36,0-2.45.82-3.84,1.88-1.41,1.07-3.17,2.4-5.73,3.2-2.05.64-3.75.92-5.12,1.16-2.51.44-3.92.68-5.18,2.52-.29.42-.58.93-.86,1.55-.3.64-.76,1.97-1.08,2.88-.06.18-.11.35-.16.49.05.03.11.07.16.1.13.08.27.15.4.21.92.43,1.74.6,2.45.6,2.31,0,3.73-1.7,5.32-1.7.31,0,.62.06.94.22,3,1.39.47,5.55,3.56,6.99,1.92.91,2.32.07,4.01.85,2.21,1.03,2.25,3.37,4.88,4.6.82.38,1.66.57,2.47.57,2,0,3.83-1.1,4.68-2.93,3.25-6.98-7.11-9.33-5.27-13.29Z"/></svg>