<?xml version="1.0" encoding="UTF-8"?><svg id="_Шар_1" xmlns="http://www.w3.org/2000/svg" viewBox="0 0 328.52 195.48"><defs><style>.cls-1{fill:#55161a;}.cls-1,.cls-2,.cls-3{stroke-width:0px;}.cls-2{fill:#eb6d6e;}.cls-3{fill:#fcf7f0;}.cls-4{isolation:isolate;}</style></defs><g class="cls-4"><path class="cls-3" d="M143.81,68.14h10.95c7.24,0,10.74,3.53,10.74,10.77v4.24c0,7.06-3.5,10.6-10.74,10.6h-10.95v-25.61ZM154.62,88.73c3.46,0,5.37-1.98,5.37-5.58v-4.24c0-3.78-1.73-5.76-5.37-5.76h-5.3v15.58h5.3Z"/><path class="cls-3" d="M167.79,88.09l11.76-7.91-1.13-1.7-2.65,1.59c-.99.64-1.48.85-2.72.85h-5.23v-4.84h17.66v5.65l-11.73,7.91,1.13,1.7,2.61-1.59c.99-.64,1.48-.85,2.72-.85h5.33v4.84h-17.77v-5.65Z"/><path class="cls-3" d="M188.7,96.85h2.86c.67,0,.88-.21,1.13-.74l1.02-2.37-6.57-16.32v-1.34h5.26l2.86,7.1c.35.95.53,1.52.53,2.97v3.04h2.05v-3.04c0-1.45.21-2.01.6-2.93l2.9-7.13h5.19v1.34l-8.62,21.4c-.78,2.01-1.66,2.86-4.34,2.86h-4.87v-4.84Z"/><path class="cls-3" d="M208.45,98.23c0-1.52.78-2.33,2.12-3.43l1.06-.88v-2.05h-1.87c-.85,0-2.4-1.45-2.4-4.27v-3.78c0-5.23,2.97-8.16,9.15-8.16h1.38c3.14,0,6.32.99,8.37,1.84v19.39c0,3.28-1.38,4.8-5.05,4.8h-8.58c-2.9,0-4.17-1.41-4.17-3.46ZM213.71,96.85h5.62c1.06,0,1.52-.53,1.52-1.45v-3.25c0-.64.11-1.09.85-1.62l1.24-.95-1.24-1.59-8.37,6.57c-.53.42-.78.71-.78,1.24,0,.6.42,1.06,1.17,1.06ZM214.31,88.87c.92,0,1.59-.46,2.97-1.55l3.57-2.86v-3.28c-.53-.21-1.94-.71-3.74-.71h-.6c-2.61,0-3.74,1.24-3.74,3.5v3.21c0,1.09.6,1.7,1.55,1.7Z"/><path class="cls-3" d="M228.86,89.33v-5.51c0-5.23,2.97-8.16,9.15-8.16h1.38c3.14,0,6.32.99,8.37,1.84v16.25h-5.44v-1.59c0-.64.14-1.09.88-1.66l1.24-.92-1.24-1.62-4.49,3.53c-2.33,1.84-3.71,2.58-5.47,2.58-2.58,0-4.38-1.66-4.38-4.73ZM235.82,88.87c.92,0,1.59-.46,2.97-1.55l3.57-2.86v-3.28c-.53-.21-1.94-.71-3.74-.71h-.6c-2.61,0-3.74,1.24-3.74,3.5v3.21c0,1.09.6,1.7,1.55,1.7Z"/><path class="cls-3" d="M249.63,68.14h5.51v11.59h-5.51v-11.59Z"/><path class="cls-3" d="M256.24,89.82v-1.31h5.33c.14,1.27.6,1.73,3.32,1.73h1.77c2.68,0,3.18-.57,3.18-1.38,0-.71-.35-1.06-1.27-1.2l-7.06-1.06c-3.57-.53-5.16-2.12-5.16-5.23,0-3.32,2.12-5.65,8.58-5.65h1.34c5.62,0,7.77,1.66,8.48,4.24v1.31h-5.3c-.07-1.13-.6-1.73-3.14-1.73h-1.55c-2.54,0-3,.53-3,1.27s.35,1.06,1.27,1.2l7.28,1.09c3.32.49,4.94,1.98,4.94,4.94,0,3.67-2.19,6.04-8.79,6.04h-1.38c-5.93,0-8.09-1.59-8.83-4.27Z"/></g><g class="cls-4"><path class="cls-3" d="M143.81,100.7h12.15c6.15,0,8.51,2.58,8.51,7.77s-2.37,7.84-8.51,7.84h-3.71c-1.13,0-1.52-.21-2.23-.88l-1.73-1.66-1.38,1.48,1.55,1.52c.53.53.85.92.85,1.84v7.7h-5.51v-25.61ZM155.93,111.47c2.05,0,3.04-1.06,3.04-2.97s-.99-2.86-3.04-2.86h-6.6v5.83h6.6Z"/><path class="cls-3" d="M165.39,121.89v-5.51c0-5.23,2.97-8.16,9.15-8.16h1.38c3.14,0,6.32.99,8.37,1.84v16.25h-5.44v-1.59c0-.64.14-1.09.88-1.66l1.24-.92-1.24-1.62-4.49,3.53c-2.33,1.84-3.71,2.58-5.47,2.58-2.58,0-4.38-1.66-4.38-4.73ZM172.35,121.43c.92,0,1.59-.46,2.97-1.55l3.57-2.86v-3.28c-.53-.21-1.94-.71-3.74-.71h-.6c-2.61,0-3.74,1.24-3.74,3.5v3.21c0,1.09.6,1.7,1.55,1.7Z"/><path class="cls-3" d="M186.16,109.99v-1.34h5.12l3.74,9.71c.21.64.35.95.35,1.7v1.7h2.01v-1.02c0-.56.11-.88.42-1.38l.99-1.63-3.96-7.74v-1.34h4.63l.92,1.77c.32.57.53.92.53,1.77v2.51h2.05v-2.51c0-.85.21-1.2.49-1.77l.95-1.77h4.59v1.38l-3.96,7.7.99,1.63c.32.49.46.81.46,1.38v1.02h2.01v-1.7c0-.74.11-1.06.32-1.7l3.74-9.71h5.09v1.34l-6.25,16.32h-5.83l-2.08-3.39c-.42-.67-.57-1.06-.57-1.77v-1.41h-2.01v1.41c0,.71-.14,1.09-.53,1.77l-2.08,3.39h-5.9l-6.25-16.32Z"/></g><path class="cls-3" d="M114.53,131.11c-7.55,5.17-15.92,8.91-25.12,11.22-9.35-2.33-17.7-5.95-24.99-10.89-7.02-4.76-11.14-12.52-11.14-20.75v-41.51c0-6.26,4.56-11.67,10.95-13.03,16.79-3.58,33.57-3.58,50.36,0,6.39,1.36,10.95,6.77,10.95,13.03v41.27c0,8.18-4.06,15.91-11.02,20.67Z"/><path class="cls-2" d="M98.15,120.41c-3.08,6.6-6.71,7.39-9.23,6.21-4.61-2.14-3.76-4.8-9.68-7.67-5.05-2.26-6.9-.95-10.1-1.75.92-.48,1.71-1.22,1.91-1.66.37-.8-2.07-1.53-3.31-2.07-2.09-.91-2.1-2.89-3.3-3.45.08-.47.18-.96.33-1.48.26-.95.65-2,1.18-3.14,2.5-5.36,5.12-3.71,11.77-5.76,6.13-1.9,7.16-6.95,12.58-4.42,2.85,1.33,3.32,3.08,3.47,5.31.15,2,.05,4.38,1.23,7.17,2.7,6.41,5.64,7.36,3.14,12.72Z"/><path class="cls-2" d="M96.72,92.11c5.86,2.73,14.41-.3,17.1-6.07,2.02-4.32.29-11.27-3.53-13.05-4.33-2.02-9.34,2.08-13.15,10.25-2.35,5.05-2.45,7.92-.42,8.87Z"/><path class="cls-2" d="M112.33,95.9c-5.35-2.49-13.59-.78-15.39,3.06-1.9,4.08.47,11.63,4.29,13.41,4.59,2.14,9.95-.04,12.3-5.09,2.58-5.53,2.11-9.84-1.2-11.38Z"/><path class="cls-1" d="M97.68,74.16c-.25-.61-.99-2.05-2.52-2.76-1.97-.92-2.39-2.41-4.62-3.46-1.49-.7-3.62-.68-4.87-.6,2.76-1.97,6.33-2.89,8.81-1.73,2.76,1.28,3.79,4.37,3.2,8.55Z"/><path class="cls-2" d="M95.09,82.28c-2.35,5.05-4.49,6.97-6.53,6.02-5.86-2.73-9.03-11.23-6.34-17,.63-1.35,1.68-2.58,2.95-3.58.16-.13.33-.26.5-.38,1.25-.08,3.38-.09,4.87.6,2.23,1.04,2.65,2.54,4.62,3.46,1.53.72,2.27,2.15,2.52,2.76,0,.07-.02.14-.03.21-.36,2.34-1.22,5.02-2.57,7.91Z"/><path class="cls-2" d="M83.17,92.54c1.79-3.84-2.19-11.26-7.54-13.76-3.31-1.54-6.92.87-9.5,6.4-2.35,5.05-.58,10.55,4.01,12.69,3.57,1.66,11.24-1.49,13.03-5.33Z"/><path class="cls-1" d="M71.05,115.54c-.45.95-1.2,1.64-1.91,1.66-.61-.15-1.27-.39-2-.73-1.84-.86-3.27-2.86-2.69-6.45h0c1.2.56,1.54,2.13,3.5,3.04.76.35,3.74,1.11,3.11,2.48Z"/><path class="cls-1" d="M94.5,118.68c-1.2,2.57-4.31,3.69-7.16,2.36-2.63-1.23-2.67-3.57-4.88-4.6-1.69-.79-2.08.06-4.01-.85-3.09-1.44-.56-5.6-3.56-6.99-2.54-1.19-4.24,2.98-8.72.89-.5-.23-.98-.58-1.4-.95.26-.95.65-2,1.18-3.14,2.5-5.36,5.12-3.71,11.77-5.76,6.13-1.9,7.16-6.95,12.58-4.42,2.85,1.33,3.32,3.08,3.47,5.31-1.15,2.38-3.29,2.17-4.56,4.87-1.85,3.96,8.52,6.32,5.27,13.29Z"/></svg>